{"title":"Parker 2013 CAM XviD-THC","uid":8075203,"size":1047656768,"categoryP":"video","categoryS":"movies","magnet":"?xt=urn:btih:be88c5a33a39ef11818e253978bb36524a015268&amp;dn=Parker+2013+CAM+XviD-THC&amp;tr=udp%3A%2F%2Ftracker.openbittorrent.com%3A80&amp;tr=udp%3A%2F%2Fopen.demonii.com%3A1337&amp;tr=udp%3A%2F%2Ftracker.coppersurfer.tk%3A6969&amp;tr=udp%3A%2F%2Fexodus.desync.com%3A6969","seeders":1,"leechers":0,"uploader":"xxxlavalxxx","files":3,"time":1359369665,"description":" &lt;a href=&quot;http://www.shotpix.com/images/00060837888659995121.jpg&quot; rel=&quot;nofollow&quot; target=&quot;_NEW&quot;&gt;http://www.shotpix.com/images/00060837888659995121.jpg&lt;/a&gt;\n\n\n\n &lt;a href=&quot;\nhttp://www.imdb.com/title/tt1904996/&quot; rel=&quot;nofollow&quot; target=&quot;_NEW&quot;&gt;\nhttp://www.imdb.com/title/tt1904996/&lt;/a&gt;\n\n\n\nPlot:A thief with a unique code of professional ethics is double-crossed by his crew and left for dead. Assuming a new disguise and forming an unlikely alliance with a woman on the inside, he looks to hijack the score of the crew's latest heist.\n \n\n\nDirector: \nTaylor Hackford\n\n Writers: \nJohn J. McLaughlin (screenplay), Donald E. Westlake (novel)\n \nStars:\n Jason Statham, Jennifer Lopez and Michael Chiklis\n\nGenres:\n Crime | Thriller \n\nCountry:\nUSA \n\nLanguage:\nEnglish\n\n\n\nSource: HP....THANKS\n\n\n\nFormat                           : AVI\nFormat/Info                      : Audio Video Interleave\nFile size                        : 987 MiB\nDuration                         : 1h 50mn\nOverall bit rate                 : 1 254 Kbps\nWriting library                  : VirtualDub build 33848/release\n\nVideo\nID                               : 0\nFormat                           : MPEG-4 Visual\nFormat profile                   : Advanced Simple@L5\nFormat settings, BVOP            : Yes\nFormat settings, QPel            : No\nFormat settings, GMC             : No warppoints\nFormat settings, Matrix          : Default (H.263)\nMuxing mode                      : Packed bitstream\nCodec ID                         : XVID\nCodec ID/Hint                    : XviD\nDuration                         : 1h 50mn\nBit rate                         : 1 115 Kbps\nWidth                            : 640 pixels\nHeight                           : 352 pixels\nDisplay aspect ratio             : 16:9\nFrame rate                       : 29.970 fps\nColor space                      : YUV\nChroma subsampling               : 4:2:0\nBit depth                        : 8 bits\nScan type                        : Progressive\nBits/(Pixel*Frame)               : 0.165\nStream size                      : 877 MiB (89%)\nWriting library                  : XviD 1.2.1 (UTC 2008-12-04)\n\nAudio\nID                               : 1\nFormat                           : MPEG Audio\nFormat version                   : Version 1\nFormat profile                   : Layer 3\nMode                             : Joint stereo\nMode extension                   : MS Stereo\nCodec ID                         : 55\nCodec ID/Hint                    : MP3\nDuration                         : 1h 50mn\nBit rate mode                    : Constant\nBit rate                         : 128 Kbps\nChannel(s)                       : 2 channels\nSampling rate                    : 48.0 KHz\nStream size                      : 101 MiB (10%)\nAlignment                        : Split accross interleaves\nInterleave, duration             : 33 ms (1.00 video frame)\nInterleave, preload duration     : 500 ms\n\nWorkdone:\nAdjusted AR, rotated video, cropped out black borders, adjust levels, brightness, saturation, contrast and used a denoiser\n\nAudio: wasnt all that great, used a denoiser, used a normalizer.\n\n\n\n &lt;a href=&quot;\nhttp://www.shotpix.com/images/05703374235342154097.png&quot; rel=&quot;nofollow&quot; target=&quot;_NEW&quot;&gt;\nhttp://www.shotpix.com/images/05703374235342154097.png&lt;/a&gt; &lt;a href=&quot;\nhttp://www.shotpix.com/images/36124873495775577288.png&quot; rel=&quot;nofollow&quot; target=&quot;_NEW&quot;&gt;\nhttp://www.shotpix.com/images/36124873495775577288.png&lt;/a&gt; &lt;a href=&quot;\nhttp://www.shotpix.com/images/71790577629504243961.png&quot; rel=&quot;nofollow&quot; target=&quot;_NEW&quot;&gt;\nhttp://www.shotpix.com/images/71790577629504243961.png&lt;/a&gt; &lt;a href=&quot;\nhttp://www.shotpix.com/images/53696553221706100590.png&quot; rel=&quot;nofollow&quot; target=&quot;_NEW&quot;&gt;\nhttp://www.shotpix.com/images/53696553221706100590.png&lt;/a&gt; &lt;a href=&quot;\nhttp://www.shotpix.com/images/06734032754017827047.png&quot; rel=&quot;nofollow&quot; target=&quot;_NEW&quot;&gt;\nhttp://www.shotpix.com/images/06734032754017827047.png&lt;/a&gt; &lt;a href=&quot;\nhttp://www.shotpix.com/images/83859779251161602885.png&quot; rel=&quot;nofollow&quot; target=&quot;_NEW&quot;&gt;\nhttp://www.shotpix.com/images/83859779251161602885.png&lt;/a&gt;\n","torrent":{"xt":"urn:btih:be88c5a33a39ef11818e253978bb36524a015268","amp;dn":"Parker+2013+CAM+XviD-THC","amp;tr":["udp%3A%2F%2Ftracker.openbittorrent.com%3A80","udp%3A%2F%2Fopen.demonii.com%3A1337","udp%3A%2F%2Ftracker.coppersurfer.tk%3A6969","udp%3A%2F%2Fexodus.desync.com%3A6969"],"infoHash":"be88c5a33a39ef11818e253978bb36524a015268","infoHashBuffer":{"type":"Buffer","data":[190,136,197,163,58,57,239,17,129,142,37,57,120,187,54,82,74,1,82,104]},"announce":[],"urlList":[]}}